REM DIRINDEX 1\2,1\3,1\4,1\5,1\6
REM DIRNAME folder01,folder02,folder03,folder04,folder05,folder06
TITLE ""
FILE "CD1-63.mp3" MP3
  TRACK 01 AUDIO
    TITLE "6:cjc091_1189"
    INDEX 01 00:00:00
  TRACK 02 AUDIO
    TITLE "0:"
    INDEX 01 00:01:19
  TRACK 03 AUDIO
    TITLE "6:cjc091_1190"
    INDEX 01 00:01:30
  TRACK 04 AUDIO
    TITLE "0:"
    INDEX 01 00:03:21
  TRACK 05 AUDIO
    TITLE "2:cjc091_1191"
    INDEX 01 00:04:42
  TRACK 06 AUDIO
    TITLE "0:"
    INDEX 01 00:05:59
  TRACK 07 AUDIO
    TITLE "3:cjc091_1192"
    INDEX 01 00:05:71
  TRACK 08 AUDIO
    TITLE "0:"
    INDEX 01 00:07:07
  TRACK 09 AUDIO
    TITLE "4:cjc091_1193"
    INDEX 01 00:07:21
  TRACK 10 AUDIO
    TITLE "0:"
    INDEX 01 00:09:24
  TRACK 11 AUDIO
    TITLE "2:cjc091_1194"
    INDEX 01 00:10:27
  TRACK 12 AUDIO
    TITLE "0:"
    INDEX 01 00:11:58
  TRACK 13 AUDIO
    TITLE "3:cjc091_1195"
    INDEX 01 00:12:05
  TRACK 14 AUDIO
    TITLE "0:"
    INDEX 01 00:13:67
  TRACK 15 AUDIO
    TITLE "4:cjc091_1196"
    INDEX 01 00:14:13
  TRACK 16 AUDIO
    TITLE "0:"
    INDEX 01 00:17:37
  TRACK 17 AUDIO
    TITLE "2:cjc091_1197"
    INDEX 01 00:18:50
  TRACK 18 AUDIO
    TITLE "0:"
    INDEX 01 00:20:28
  TRACK 19 AUDIO
    TITLE "3:cjc091_1198"
    INDEX 01 00:20:43
  TRACK 20 AUDIO
    TITLE "0:"
    INDEX 01 00:22:27
  TRACK 21 AUDIO
    TITLE "4:cjc091_1199"
    INDEX 01 00:22:50
  TRACK 22 AUDIO
    TITLE "0:"
    INDEX 01 00:28:21
  TRACK 23 AUDIO
    TITLE "2:cjc091_1200"
    INDEX 01 00:29:33
  TRACK 24 AUDIO
    TITLE "0:"
    INDEX 01 00:30:69
  TRACK 25 AUDIO
    TITLE "3:cjc091_1201"
    INDEX 01 00:31:02
  TRACK 26 AUDIO
    TITLE "0:"
    INDEX 01 00:32:15
  TRACK 27 AUDIO
    TITLE "4:cjc091_1202"
    INDEX 01 00:32:35
  TRACK 28 AUDIO
    TITLE "0:"
    INDEX 01 00:35:00
  TRACK 29 AUDIO
    TITLE "2:cjc091_1203"
    INDEX 01 00:36:15
  TRACK 30 AUDIO
    TITLE "0:"
    INDEX 01 00:40:03
  TRACK 31 AUDIO
    TITLE "3:cjc091_1204"
    INDEX 01 00:40:26
  TRACK 32 AUDIO
    TITLE "0:"
    INDEX 01 00:45:24
  TRACK 33 AUDIO
    TITLE "4:cjc091_1205"
    INDEX 01 00:45:53
  TRACK 34 AUDIO
    TITLE "0:"
    INDEX 01 00:49:61
  TRACK 35 AUDIO
    TITLE "2:cjc091_1206"
    INDEX 01 00:50:74
  TRACK 36 AUDIO
    TITLE "0:"
    INDEX 01 00:52:28
  TRACK 37 AUDIO
    TITLE "3:cjc091_1207"
    INDEX 01 00:52:47
  TRACK 38 AUDIO
    TITLE "0:"
    INDEX 01 00:54:07
  TRACK 39 AUDIO
    TITLE "4:cjc091_1208"
    INDEX 01 00:54:27
  TRACK 40 AUDIO
    TITLE "0:"
    INDEX 01 01:00:35
  TRACK 41 AUDIO
    TITLE "2:cjc091_1209"
    INDEX 01 01:01:50
  TRACK 42 AUDIO
    TITLE "0:"
    INDEX 01 01:02:61
  TRACK 43 AUDIO
    TITLE "3:cjc091_1210"
    INDEX 01 01:03:00
  TRACK 44 AUDIO
    TITLE "0:"
    INDEX 01 01:04:43
  TRACK 45 AUDIO
    TITLE "4:cjc091_1211"
    INDEX 01 01:04:68
  TRACK 46 AUDIO
    TITLE "0:"
    INDEX 01 01:08:13
  TRACK 47 AUDIO
    TITLE "2:cjc091_1212"
    INDEX 01 01:09:22
  TRACK 48 AUDIO
    TITLE "0:"
    INDEX 01 01:10:51
  TRACK 49 AUDIO
    TITLE "3:cjc091_1213"
    INDEX 01 01:10:65
  TRACK 50 AUDIO
    TITLE "0:"
    INDEX 01 01:12:15
  TRACK 51 AUDIO
    TITLE "4:cjc091_1214"
    INDEX 01 01:12:40
  TRACK 52 AUDIO
    TITLE "0:"
    INDEX 01 01:16:44
  TRACK 53 AUDIO
    TITLE "2:cjc091_1215"
    INDEX 01 01:17:53
  TRACK 54 AUDIO
    TITLE "0:"
    INDEX 01 01:19:07
  TRACK 55 AUDIO
    TITLE "3:cjc091_1216"
    INDEX 01 01:19:34
  TRACK 56 AUDIO
    TITLE "0:"
    INDEX 01 01:20:36
  TRACK 57 AUDIO
    TITLE "4:cjc091_1217"
    INDEX 01 01:20:55
  TRACK 58 AUDIO
    TITLE "0:"
    INDEX 01 01:24:53
  TRACK 59 AUDIO
    TITLE "2:cjc091_1218"
    INDEX 01 01:25:64
  TRACK 60 AUDIO
    TITLE "0:"
    INDEX 01 01:27:32
  TRACK 61 AUDIO
    TITLE "3:cjc091_1219"
    INDEX 01 01:27:53
  TRACK 62 AUDIO
    TITLE "0:"
    INDEX 01 01:29:60
  TRACK 63 AUDIO
    TITLE "4:cjc091_1220"
    INDEX 01 01:30:03
  TRACK 64 AUDIO
    TITLE "0:"
    INDEX 01 01:34:67
  TRACK 65 AUDIO
    TITLE "2:cjc091_1221"
    INDEX 01 01:36:01
  TRACK 66 AUDIO
    TITLE "0:"
    INDEX 01 01:37:24
  TRACK 67 AUDIO
    TITLE "3:cjc091_1222"
    INDEX 01 01:37:40
  TRACK 68 AUDIO
    TITLE "0:"
    INDEX 01 01:39:23
  TRACK 69 AUDIO
    TITLE "4:cjc091_1223"
    INDEX 01 01:39:45
  TRACK 70 AUDIO
    TITLE "0:"
    INDEX 01 01:43:17
  TRACK 71 AUDIO
    TITLE "2:cjc091_1224"
    INDEX 01 01:44:24
  TRACK 72 AUDIO
    TITLE "0:"
    INDEX 01 01:45:38
  TRACK 73 AUDIO
    TITLE "3:cjc091_1225"
    INDEX 01 01:45:57
  TRACK 74 AUDIO
    TITLE "0:"
    INDEX 01 01:47:39
  TRACK 75 AUDIO
    TITLE "4:cjc091_1226"
    INDEX 01 01:47:58
  TRACK 76 AUDIO
    TITLE "0:"
    INDEX 01 01:51:13
  TRACK 77 AUDIO
    TITLE "2:cjc091_1227"
    INDEX 01 01:52:26
  TRACK 78 AUDIO
    TITLE "0:"
    INDEX 01 01:53:63
  TRACK 79 AUDIO
    TITLE "3:cjc091_1228"
    INDEX 01 01:53:69
  TRACK 80 AUDIO
    TITLE "0:"
    INDEX 01 01:55:15
  TRACK 81 AUDIO
    TITLE "4:cjc091_1229"
    INDEX 01 01:55:30
  TRACK 82 AUDIO
    TITLE "0:"
    INDEX 01 02:01:21
  TRACK 83 AUDIO
    TITLE "2:cjc091_1230"
    INDEX 01 02:02:34
  TRACK 84 AUDIO
    TITLE "0:"
    INDEX 01 02:03:55
  TRACK 85 AUDIO
    TITLE "3:cjc091_1231"
    INDEX 01 02:03:69
  TRACK 86 AUDIO
    TITLE "0:"
    INDEX 01 02:05:38
  TRACK 87 AUDIO
    TITLE "4:cjc091_1232"
    INDEX 01 02:05:58
  TRACK 88 AUDIO
    TITLE "0:"
    INDEX 01 02:08:47
  TRACK 89 AUDIO
    TITLE "2:cjc091_1233"
    INDEX 01 02:09:56
  TRACK 90 AUDIO
    TITLE "0:"
    INDEX 01 02:10:61
  TRACK 91 AUDIO
    TITLE "3:cjc091_1234"
    INDEX 01 02:10:69
  TRACK 92 AUDIO
    TITLE "0:"
    INDEX 01 02:12:03
  TRACK 93 AUDIO
    TITLE "4:cjc091_1235"
    INDEX 01 02:12:21
  TRACK 94 AUDIO
    TITLE "0:"
    INDEX 01 02:14:10
